HIERARCHY
ROOT root
{
	OFFSET	0	13.1	24.9
	CHANNELS 6  Xposition Yposition Zposition Xrotation Yrotation Zrotation
	JOINT spine_1
	{
		OFFSET	0	9.99999	0
		CHANNELS 3  Xrotation Yrotation Zrotation
		JOINT spine_2
		{
			OFFSET	0	112	-10
			CHANNELS 3  Xrotation Yrotation Zrotation
			JOINT spine_3
			{
				OFFSET	0	206.5	19.3
				CHANNELS 3  Xrotation Yrotation Zrotation
				JOINT spine_4
				{
					OFFSET	0	110.4	14.6
					CHANNELS 3  Xrotation Yrotation Zrotation
					JOINT neck_1
					{
						OFFSET	0	71.8	-50.3
						CHANNELS 3  Xrotation Yrotation Zrotation
						JOINT neck_2
						{
							OFFSET	0	86.2	-25.8
							CHANNELS 3  Xrotation Yrotation Zrotation
							JOINT head_ee
							{
								OFFSET	0	179.8	-8.7
								CHANNELS 3  Xrotation Yrotation Zrotation
								End Site
								{
									OFFSET	1	0	0
								}
							}
						}
					}
					JOINT left_clavicle
					{
						OFFSET	-43.2	22.4	-70.8
						CHANNELS 3  Xrotation Yrotation Zrotation
						JOINT left_shoulder
						{
							OFFSET	-93.9	-5.79999	48.7
							CHANNELS 3  Xrotation Yrotation Zrotation
							JOINT left_elbow
							{
								OFFSET	-291.4	-30.8	15.2
								CHANNELS 3  Xrotation Yrotation Zrotation
								JOINT left_lowarm_twist
								{
									OFFSET	-110.7	-3.89999	13.6
									CHANNELS 3  Xrotation Yrotation Zrotation
									JOINT left_hand
									{
										OFFSET	-110.7	-3.89999	13.6
										CHANNELS 3  Xrotation Yrotation Zrotation
										JOINT left_ee
										{
											OFFSET	-80.8	-5.10001	12.1
											CHANNELS 3  Xrotation Yrotation Zrotation
											End Site
											{
												OFFSET	1	0	0
											}
										}
									}
								}
							}
						}
					}
					JOINT right_clavicle
					{
						OFFSET	43.2	22.4	-70.8
						CHANNELS 3  Xrotation Yrotation Zrotation
						JOINT right_shoulder
						{
							OFFSET	93.9	-5.79999	48.7
							CHANNELS 3  Xrotation Yrotation Zrotation
							JOINT right_elbow
							{
								OFFSET	291.4	-30.8	15.2
								CHANNELS 3  Xrotation Yrotation Zrotation
								JOINT right_lowarm_twist
								{
									OFFSET	110.7	-3.89999	13.6
									CHANNELS 3  Xrotation Yrotation Zrotation
									JOINT right_hand
									{
										OFFSET	110.7	-3.89999	13.6
										CHANNELS 3  Xrotation Yrotation Zrotation
										JOINT right_ee
										{
											OFFSET	80.8	-5.10001	12.1
											CHANNELS 3  Xrotation Yrotation Zrotation
											End Site
											{
												OFFSET	1	0	0
											}
										}
									}
								}
							}
						}
					}
				}
			}
		}
	}
	JOINT left_hip
	{
		OFFSET	-82.8	-127.5	0.300001
		CHANNELS 3  Xrotation Yrotation Zrotation
		JOINT left_knee
		{
			OFFSET	-28.2	-396.7	2.2
			CHANNELS 3  Xrotation Yrotation Zrotation
			JOINT left_ankle
			{
				OFFSET	-11.7	-411.3	35.4
				CHANNELS 3  Xrotation Yrotation Zrotation
				JOINT left_toes
				{
					OFFSET	0	-60	-88.6
					CHANNELS 3  Xrotation Yrotation Zrotation
					JOINT left_foot_ee
					{
						OFFSET	-22.5	-16.5	-42.2
						CHANNELS 3  Xrotation Yrotation Zrotation
						End Site
						{
							OFFSET	1	0	0
						}
					}
				}
			}
		}
	}
	JOINT right_hip
	{
		OFFSET	82.8	-127.5	0.300001
		CHANNELS 3  Xrotation Yrotation Zrotation
		JOINT right_knee
		{
			OFFSET	28.2	-396.7	2.2
			CHANNELS 3  Xrotation Yrotation Zrotation
			JOINT right_ankle
			{
				OFFSET	11.7	-411.3	35.4
				CHANNELS 3  Xrotation Yrotation Zrotation
				JOINT right_toes
				{
					OFFSET	0	-60	-88.6
					CHANNELS 3  Xrotation Yrotation Zrotation
					JOINT right_foot_ee
					{
						OFFSET	22.5	-16.5	-42.2
						CHANNELS 3  Xrotation Yrotation Zrotation
						End Site
						{
							OFFSET	1	0	0
						}
					}
				}
			}
		}
	}
}
MOTION
Frames: 12
Frame Time: 0.02
3469.46 748.821 -1514.18 -10.9442 57.7025 4.59053 3.16324 0.728637 4.3144 3.17347 0.45289 4.35193 3.20432 -0.228012 4.36945 3.17799 0.464254 4.35073 -5.95844 20.2024 -2.37091 -5.72856 39.15 1.44156 -0.0 0.0 -0.0 -5.45419 9.25736 -8.51103 -26.4986 -32.0234 57.7628 1.64076 -39.1006 0.582681 1.40093 0.0472495 -0.172683 -1.46813 10.9475 -4.8319 -0.0 0.0 -0.0 11.1421 8.18007 -22.3477 -23.5389 52.3615 -69.2802 0.598588 16.5164 -0.0868795 36.1612 0.164798 4.54066 -1.33887 11.3611 13.9914 0.0 0.0 0.0 7.24372 66.6679 -6.22285 -7.85425 0.242812 1.17999 2.33523 -29.9404 -0.432622 21.2374 -0.0 -0.0 -0.0 0.0 -0.0 -5.1757 44.554 7.93542 7.96521 0.408913 1.15233 14.4655 -21.4587 2.08311 4.53473 -0.0 -0.0 0.0 0.0 0.0 
3470.12 748.495 -1510.55 -11.3007 57.6639 4.82802 3.16674 0.698682 4.34885 3.17716 0.42081 4.3844 3.20572 -0.26474 4.39657 3.17901 0.432254 4.38329 -6.39772 19.9278 -2.69936 -6.2476 38.9367 1.2302 -0.0 0.0 -0.0 -5.49037 9.25441 -8.5769 -26.0871 -32.0063 57.9952 1.6558 -39.3567 0.592192 0.89734 0.0307516 -0.110479 -1.20976 10.304 -3.47245 -0.0 0.0 -0.0 11.1088 8.45268 -22.2762 -23.4341 52.3886 -69.1342 0.601255 16.586 -0.0876394 35.9911 0.157332 4.52023 -1.27241 12.183 13.8824 0.0 0.0 0.0 7.46512 66.6596 -6.0331 -8.32811 0.252258 1.2521 3.83384 -29.9361 -0.706596 21.1335 -0.0 -0.0 -0.0 0.0 -0.0 -5.20811 46.1525 8.4927 7.85031 0.40188 1.13613 14.6821 -20.9363 2.10797 6.5021 -0.0 -0.0 0.0 0.0 0.0 
3471.33 748.256 -1508.72 -11.0472 56.6489 4.36625 3.18973 0.768546 4.34509 3.20009 0.490772 4.38508 3.23399 -0.193346 4.40818 3.20724 0.504587 4.38352 -6.87374 19.5441 -3.0869 -6.80653 38.5579 0.948364 -0.0 0.0 -0.0 -5.54304 9.67888 -8.56603 -24.6665 -30.3219 59.2356 1.68649 -39.8733 0.611759 0.382031 0.0133038 -0.0469769 -1.01733 9.7145 -2.50196 -0.0 0.0 -0.0 11.0731 8.61942 -22.1983 -23.3896 52.3727 -68.8183 0.596262 16.4557 -0.0862195 35.7401 0.146428 4.49005 -1.33662 12.8194 14.5994 0.0 0.0 0.0 7.82758 66.6672 -6.12112 -9.55239 0.273896 1.43871 4.83952 -29.1656 -0.879544 21.1748 -0.0 -0.0 -0.0 0.0 -0.0 -6.08395 47.4969 9.55166 7.75283 0.39594 1.12237 14.6968 -19.3946 2.09733 8.42173 -0.0 -0.0 0.0 0.0 0.0 
3470.5 747.107 -1508.8 -11.0691 55.803 4.19348 3.1675 0.85347 4.415 3.17816 0.571089 4.46024 3.21895 -0.126576 4.4948 3.19124 0.584163 4.45855 -7.20485 19.2638 -3.34896 -7.19289 38.2581 0.754462 -0.0 0.0 -0.0 -5.91454 10.0498 -9.13661 -23.9309 -29.0519 59.9187 1.71496 -40.3458 0.630104 0.0371788 0.00130832 -0.00456793 -0.880267 9.37476 -1.77108 -0.0 0.0 -0.0 11.1129 8.66168 -22.2866 -22.7324 52.5126 -69.0203 0.597624 16.4913 -0.0866058 35.6948 0.144478 4.48461 -1.40165 13.2349 15.2285 0.0 0.0 0.0 7.09865 66.3524 -5.58296 -9.28297 0.269477 1.39761 6.321 -29.0159 -1.14019 21.1711 -0.0 -0.0 -0.0 0.0 -0.0 -5.89201 48.3874 9.76811 7.81297 0.399602 1.13086 14.6985 -19.3247 2.09703 9.88937 -0.0 -0.0 0.0 0.0 0.0 
3470.3 748.27 -1506.81 -10.9715 55.3975 4.03654 3.13532 0.86842 4.4041 3.14591 0.5867 4.45031 3.18795 -0.111998 4.48735 3.16035 0.597385 4.44889 -8.40305 19.2816 -1.83746 -8.64499 37.3899 2.73285 -0.0 0.0 -0.0 -5.85872 10.291 -8.97432 -22.9835 -27.6825 60.7232 1.70643 -40.2049 0.624586 -0.0261186 -0.000921098 0.00320847 -0.694486 9.24 -0.6352 -0.0 0.0 -0.0 11.1343 8.6899 -22.3342 -22.4891 52.4956 -68.9262 0.580621 16.0466 -0.0818423 35.4661 0.134679 4.45705 -1.49203 13.5151 15.9777 0.0 0.0 0.0 7.74511 66.5487 -5.93339 -10.4062 0.286624 1.5691 5.71548 -29.5204 -1.04031 21.9927 -0.0 -0.0 -0.0 0.0 -0.0 -5.70755 48.2864 9.8428 7.81461 0.399702 1.13109 11.9369 -19.085 1.71846 10.695 -0.0 -0.0 0.0 0.0 0.0 
3470.74 745.937 -1507.09 -10.4712 55.6583 3.30274 3.17384 0.875659 4.36717 3.18425 0.596269 4.41391 3.22661 -0.0938418 4.45294 3.19946 0.609897 4.41205 -9.09458 18.9772 -1.70386 -9.4496 36.8093 3.04708 -0.0 0.0 -0.0 -5.93238 10.3871 -9.08056 -22.3845 -26.852 61.1689 1.73782 -40.7204 0.644957 -0.25891 -0.00919443 0.0317871 -0.630793 9.15103 -0.263773 -0.0 0.0 -0.0 11.0816 8.7145 -22.2177 -22.5319 52.3814 -68.6652 0.579756 16.0239 -0.0816034 35.3829 0.131141 4.44702 -1.52955 13.7844 16.3539 0.0 0.0 0.0 6.91535 66.6443 -4.90902 -10.9497 0.293713 1.6522 5.81978 -29.8293 -1.06331 21.7369 -0.0 -0.0 -0.0 0.0 -0.0 -5.86057 48.6245 9.93319 7.33788 0.370918 1.06371 11.0777 -19.0176 1.59905 11.7802 -0.0 -0.0 0.0 0.0 0.0 
3469.48 746.342 -1507.66 -10.681 55.5791 3.37105 3.16176 0.758884 4.36252 3.17222 0.480024 4.40186 3.20548 -0.208801 4.42299 3.17852 0.491656 4.40058 -9.29324 19.2747 -2.06388 -9.70037 37.6337 2.85968 -0.0 0.0 -0.0 -6.00842 10.5712 -9.16756 -21.8022 -25.5926 61.8826 1.73726 -40.7113 0.644593 -0.186128 -0.00659528 0.0228555 -0.514576 9.12616 0.473332 -0.0 0.0 -0.0 11.0638 8.61704 -22.1778 -22.4064 52.4284 -68.6691 0.578072 15.9798 -0.0811394 35.0275 0.1162 4.40412 -1.55179 14.1281 16.6548 0.0 0.0 0.0 7.43544 68.0728 -5.42254 -11.106 0.295605 1.6761 7.62726 -30.0497 -1.38787 21.9818 -0.0 -0.0 -0.0 0.0 -0.0 -5.90148 48.6423 10.147 6.69335 0.332898 0.972233 10.9856 -19.0489 1.58641 12.3608 -0.0 -0.0 0.0 0.0 0.0 
3467.83 744.204 -1507.03 -10.64 56.0084 3.35416 3.14841 0.642561 4.36561 3.15894 0.363739 4.39757 3.1832 -0.325068 4.40059 3.15638 0.373313 4.39677 -8.1267 19.5927 -2.94367 -8.31259 38.6981 1.61353 -0.0 0.0 -0.0 -5.94609 10.3036 -9.12684 -21.2491 -24.8123 62.4136 1.70962 -40.2578 0.626651 0.517041 0.0179305 -0.0635993 -0.179517 9.27043 2.68989 -0.0 0.0 -0.0 10.9857 8.27332 -22.0032 -22.2831 51.8414 -68.6891 0.556263 15.406 -0.0752401 35.3421 0.129415 4.4421 -1.7573 13.527 17.8439 0.0 0.0 0.0 7.29468 69.146 -5.48493 -11.0685 0.295157 1.67036 8.94575 -29.9764 -1.61729 21.9689 -0.0 -0.0 -0.0 0.0 -0.0 -5.79946 48.2494 10.119 6.18769 0.303793 0.900178 15.5658 -18.9076 2.21023 14.2336 -0.0 -0.0 0.0 0.0 0.0 
3465.68 745.556 -1507.88 -10.6958 55.8023 3.18234 3.09447 0.752533 4.38091 3.10502 0.472519 4.41981 3.13801 -0.224267 4.4393 3.11084 0.478952 4.41912 -8.24614 19.7243 -2.58939 -8.46566 38.7163 2.04698 -0.0 0.0 -0.0 -5.9469 10.6269 -9.04359 -20.9763 -24.1534 62.7167 1.72696 -40.5429 0.637884 0.191645 0.00671319 -0.0235548 -0.193038 10.7381 3.2074 -0.0 0.0 -0.0 10.9915 7.54669 -22.009 -22.1441 51.5731 -68.5447 0.537294 14.9045 -0.0702808 35.3652 0.130392 4.44489 -1.86358 12.3936 18.1105 0.0 0.0 0.0 7.15358 69.3001 -5.73925 -10.8848 0.292908 1.64227 9.74638 -30.6304 -1.7718 22.0441 -0.0 -0.0 -0.0 0.0 -0.0 -5.42557 48.0281 9.85945 5.79659 0.281721 0.844277 14.56 -21.4832 2.09621 12.5192 -0.0 -0.0 0.0 0.0 0.0 
3462.23 741.986 -1511.74 -9.9331 55.5337 2.62312 2.99974 0.885203 4.29565 3.0098 0.610331 4.34315 3.05313 -0.082247 4.38497 3.02682 0.610644 4.3431 -7.0224 19.7172 -3.00301 -6.9877 38.8408 1.13206 -0.0 0.0 -0.0 -6.12162 10.8165 -9.30348 -20.9363 -23.7185 62.8352 1.75554 -41.008 0.656554 0.215706 0.00755023 -0.0265138 -0.145084 11.008 3.62398 -0.0 0.0 -0.0 11.3372 7.37622 -22.7683 -23.27 51.0916 -67.6926 0.522294 14.5062 -0.0664732 35.1656 0.121976 4.42081 -1.91481 12.6727 18.593 0.0 0.0 0.0 10.6885 70.0914 -9.05909 -11.4977 0.300062 1.73604 10.2282 -30.1793 -1.84396 21.5481 -0.0 -0.0 -0.0 0.0 -0.0 -5.58129 48.8791 9.36546 4.8029 0.227367 0.701593 18.4435 -23.0081 2.63456 11.7551 -0.0 -0.0 0.0 0.0 0.0 
3457.68 739.546 -1513.24 -9.06106 57.3678 1.29665 2.88604 0.783367 4.44227 2.89687 0.499398 4.483 2.93305 -0.223684 4.50514 2.90507 0.489893 4.48405 -7.30209 19.9384 -2.46842 -7.33899 38.9166 1.83331 -0.0 0.0 -0.0 -6.23273 10.6814 -9.53728 -20.9215 -23.7936 62.6199 1.76867 -41.2194 0.665187 -0.573898 -0.020574 0.0704033 0.00693234 9.69234 4.06234 -0.0 0.0 -0.0 11.3497 6.91335 -22.7873 -23.527 50.2449 -67.3627 0.54636 15.1445 -0.072631 36.2771 0.169918 4.55457 -2.11384 11.2254 19.3829 0.0 0.0 0.0 8.40143 69.0628 -7.64223 -11.754 0.302757 1.77528 8.90681 -30.4033 -1.61995 21.871 -0.0 -0.0 -0.0 0.0 -0.0 -4.04446 46.8718 7.9407 0.22832 0.00946882 0.0337581 24.7252 -24.1768 3.45802 14.2067 -0.0 -0.0 0.0 0.0 0.0 
3464.56 738.876 -1514.73 -10.1322 56.6483 2.83682 3.09788 0.842271 4.39098 3.10842 0.561437 4.43555 3.14847 -0.13782 4.46876 3.12106 0.568958 4.4346 -6.7666 19.7442 -2.87968 -6.68475 38.7717 1.15816 -0.0 0.0 -0.0 -6.37867 11.0125 -9.70658 -19.8401 -23.8956 62.5795 1.72643 -40.5343 0.637541 -0.664668 -0.0238927 0.0815198 -0.146308 11.9252 3.98986 -0.0 0.0 -0.0 11.5255 6.45344 -23.1644 -22.682 50.0855 -67.7312 0.486549 13.5513 -0.057808 36.2975 0.17082 4.55701 -2.00473 11.3648 18.6668 0.0 0.0 0.0 11.0371 68.2019 -9.54177 -12.5751 0.310206 1.90104 11.2729 -30.1861 -2.02295 23.4018 -0.0 -0.0 -0.0 0.0 -0.0 -3.97758 46.3442 7.855 4.42723 0.207465 0.647413 26.7807 -25.5849 3.73929 10.3207 -0.0 -0.0 0.0 0.0 0.0 
